<svg width="455" height="609" viewBox="0 0 455 609" fill="none" xmlns="http://www.w3.org/2000/svg">
<path fill-rule="evenodd" clip-rule="evenodd" d="M150.007 -25.4065C208.305 -14.2074 245.513 37.5156 295.237 69.9453C348.759 104.853 435.917 109.86 452.162 171.66C468.588 234.146 387.143 278.961 366.25 340.098C345.89 399.675 372.541 472.533 332.686 521.272C289.261 574.377 218.276 597.812 150.007 604.544C76.7235 611.771 -11.1016 614.358 -60.8675 560.08C-110.502 505.945 -85.7259 420.104 -86.4375 346.662C-86.9279 296.048 -70.8358 250.385 -64.3544 200.186C-55.7642 133.654 -88.5462 53.7281 -42.3367 5.09758C3.50123 -43.1418 84.6577 -37.9601 150.007 -25.4065Z" fill="#242323"/>
</svg>
