<svg width="39" height="31" viewBox="0 0 39 31" fill="none" xmlns="http://www.w3.org/2000/svg">
<g clip-path="url(#clip0_62_2)">
<path d="M29.7375 11.625H20.475V15.0157C20.475 17.4194 18.5068 19.375 16.0875 19.375C13.6683 19.375 11.7 17.4194 11.7 15.0157V7.65316L7.7452 10.0145C6.56911 10.7108 5.85004 11.9762 5.85004 13.3325V16.1963L0.975047 18.9936C0.0427033 19.5264 -0.280265 20.7131 0.262078 21.6395L5.13708 30.0313C5.67333 30.9577 6.8677 31.2725 7.80004 30.7397L14.101 27.125H22.425C24.5761 27.125 26.325 25.3873 26.325 23.25H27.3C28.3786 23.25 29.25 22.3842 29.25 21.3125V17.4375H29.7375C30.548 17.4375 31.2 16.7897 31.2 15.9844V13.0782C31.2 12.2729 30.548 11.625 29.7375 11.625ZM38.738 9.36058L33.863 0.968783C33.3268 0.0424158 32.1324 -0.272428 31.2 0.260385L24.8991 3.87503H18.6713C17.94 3.87503 17.2271 4.08089 16.6055 4.46234L14.5641 5.72777C13.9913 6.07894 13.65 6.70257 13.65 7.36859V15.0157C13.65 16.3537 14.7408 17.4375 16.0875 17.4375C17.4343 17.4375 18.525 16.3537 18.525 15.0157V9.68753H29.7375C31.6205 9.68753 33.15 11.2073 33.15 13.0782V14.8037L38.025 12.0065C38.9574 11.4676 39.2742 10.2869 38.738 9.36058V9.36058Z" fill="#E7E7E7"/>
</g>
<defs>
<clipPath id="clip0_62_2">
<rect width="39" height="31" fill="white"/>
</clipPath>
</defs>
</svg>
