<svg width="39" height="45" viewBox="0 0 39 45" fill="none" xmlns="http://www.w3.org/2000/svg">
<path d="M38.4777 10.0195H0.522321C0.383793 10.0195 0.250939 9.96397 0.152984 9.86508C0.0550301 9.76618 0 9.63205 0 9.49219L0 7.38281C0 7.24295 0.0550301 7.10882 0.152984 7.00992C0.250939 6.91103 0.383793 6.85547 0.522321 6.85547H38.4777C38.6162 6.85547 38.7491 6.91103 38.847 7.00992C38.945 7.10882 39 7.24295 39 7.38281V9.49219C39 9.63205 38.945 9.76618 38.847 9.86508C38.7491 9.96397 38.6162 10.0195 38.4777 10.0195V10.0195ZM38.4777 24.082H0.522321C0.383793 24.082 0.250939 24.0265 0.152984 23.9276C0.0550301 23.8287 0 23.6945 0 23.5547L0 21.4453C0 21.3055 0.0550301 21.1713 0.152984 21.0724C0.250939 20.9735 0.383793 20.918 0.522321 20.918H38.4777C38.6162 20.918 38.7491 20.9735 38.847 21.0724C38.945 21.1713 39 21.3055 39 21.4453V23.5547C39 23.6945 38.945 23.8287 38.847 23.9276C38.7491 24.0265 38.6162 24.082 38.4777 24.082V24.082ZM38.4777 38.1445H0.522321C0.383793 38.1445 0.250939 38.089 0.152984 37.9901C0.0550301 37.8912 0 37.757 0 37.6172L0 35.5078C0 35.368 0.0550301 35.2338 0.152984 35.1349C0.250939 35.036 0.383793 34.9805 0.522321 34.9805H38.4777C38.6162 34.9805 38.7491 35.036 38.847 35.1349C38.945 35.2338 39 35.368 39 35.5078V37.6172C39 37.757 38.945 37.8912 38.847 37.9901C38.7491 38.089 38.6162 38.1445 38.4777 38.1445V38.1445Z" fill="white"/>
</svg>
